<?xml version="1.0" standalone="no"?>
<!DOCTYPE svg PUBLIC "-//W3C//DTD SVG 20010904//EN"
 "http://www.w3.org/TR/2001/REC-SVG-20010904/DTD/svg10.dtd">
<svg version="1.0" xmlns="http://www.w3.org/2000/svg"
 width="1080.000000pt" height="1080.000000pt" viewBox="0 0 1080.000000 1080.000000"
 preserveAspectRatio="xMidYMid meet">

<g transform="translate(0.000000,1080.000000) scale(0.100000,-0.100000)"
fill="#000000" stroke="none">
<path d="M5713 8426 l-348 -355 -100 -16 c-465 -76 -918 -263 -1303 -540 -50
-36 -95 -65 -100 -65 -5 0 -40 87 -77 193 -37 105 -71 196 -75 201 -5 4 12
-87 36 -204 24 -117 44 -222 44 -233 0 -15 -26 -44 -76 -87 -42 -36 -128 -119
-190 -185 l-114 -120 -136 68 c-75 37 -133 63 -130 58 4 -5 56 -44 116 -86 61
-41 110 -78 110 -81 0 -3 -29 -42 -64 -87 -108 -139 -217 -314 -312 -500 l-90
-178 -280 -121 c-281 -121 -348 -154 -239 -119 236 78 477 152 481 148 2 -2
-18 -71 -45 -153 -76 -230 -128 -489 -146 -730 l-7 -91 -303 -349 c-167 -192
-301 -351 -300 -353 2 -2 136 131 297 294 l293 298 7 -134 c17 -328 62 -579
154 -860 382 -1171 1439 -2016 2659 -2129 142 -13 444 -13 576 0 609 60 1164
285 1645 667 140 111 396 368 500 503 380 489 593 1023 654 1630 13 135 13
445 0 580 -39 391 -146 755 -325 1110 -198 389 -492 748 -844 1029 -452 359
-995 582 -1591 653 -58 6 -217 12 -357 12 -230 -1 -252 1 -240 15 16 22 524
609 556 644 13 15 22 27 19 27 -4 0 -163 -159 -355 -354z m104 -516 c32 -19
102 -105 103 -126 0 -7 -49 -10 -157 -9 -87 1 -159 3 -161 4 -8 3 61 91 93
119 42 37 76 40 122 12z m-372 -82 l-34 -63 -112 -13 c-62 -7 -114 -10 -117
-7 -3 3 12 23 33 45 32 32 58 47 130 70 49 16 100 29 112 30 22 0 22 -1 -12
-62z m732 33 c125 -41 304 -124 291 -136 -2 -1 -82 7 -178 19 l-174 21 -33 59
c-18 32 -33 60 -33 62 0 10 46 1 127 -25z m-1377 -104 c0 -2 -30 -27 -66 -57
-62 -49 -78 -56 -218 -96 -83 -24 -155 -42 -160 -41 -12 4 205 110 323 158 87
35 121 45 121 36z m2057 -41 c125 -50 318 -145 310 -152 -3 -3 -40 5 -84 19
-43 13 -109 32 -148 43 -55 14 -84 29 -137 72 -98 78 -94 80 59 18z m-893
-112 l46 -7 34 -106 c19 -58 46 -151 60 -206 24 -95 86 -387 86 -404 0 -4
-192 -8 -426 -8 l-426 0 6 46 c3 25 12 69 19 96 l12 50 207 89 c114 49 206 91
204 93 -2 2 -90 -24 -195 -58 -106 -34 -195 -58 -199 -55 -8 9 49 237 92 366
29 88 33 95 61 101 40 9 360 11 419 3z m-632 -20 c4 -3 -6 -42 -21 -87 -22
-65 -82 -299 -106 -412 -4 -18 -67 -41 -421 -153 -229 -73 -418 -132 -420
-130 -6 6 626 732 644 741 9 4 82 16 162 26 80 11 148 20 151 20 3 1 8 -2 11
-5z m1078 -24 c80 -11 196 -31 259 -44 l113 -24 70 -68 c90 -89 215 -244 294
-364 72 -110 195 -331 189 -340 -2 -3 -66 6 -142 21 -176 35 -444 74 -648 94
-88 9 -165 17 -171 20 -7 2 -17 34 -23 72 -26 148 -83 395 -120 518 -22 71
-37 133 -35 137 2 4 19 5 37 2 17 -2 97 -13 177 -24z m-1778 -237 c-188 -197
-212 -220 -212 -207 0 28 287 359 324 374 67 27 49 1 -112 -167z m-218 65 c-5
-7 -29 -40 -54 -73 -84 -108 -263 -391 -283 -449 -2 -6 -7 -9 -9 -6 -3 3 -33
82 -67 175 -54 153 -59 171 -44 182 33 25 422 180 456 182 5 1 5 -5 1 -11z
m2833 -34 c146 -53 358 -148 484 -217 96 -52 181 -134 327 -316 112 -139 296
-421 274 -421 -5 0 -53 18 -108 41 -166 68 -440 158 -632 209 -43 11 -45 14
-86 103 -86 185 -238 436 -347 573 -46 58 -56 74 -44 74 2 0 62 -21 132 -46z
m-3378 -309 c13 -58 21 -110 19 -116 -4 -12 -158 146 -158 162 0 11 101 69
111 64 3 -3 16 -52 28 -110z m-96 -104 c37 -71 67 -132 67 -135 0 -5 -258 120
-269 130 -6 6 112 131 124 133 6 0 40 -57 78 -128z m1403 -8 c-12 -83 -10 -80
-89 -87 -40 -4 -114 -12 -165 -18 -51 -6 -95 -8 -97 -6 -5 4 330 155 349 157
4 1 5 -20 2 -46z m-1463 -188 c81 -55 147 -103 147 -107 0 -4 -33 -17 -72 -28
-147 -43 -267 -84 -427 -147 -90 -35 -165 -62 -167 -60 -11 11 149 257 260
399 l60 77 27 -17 c14 -9 92 -62 172 -117z m2499 -53 c20 -20 79 -550 94 -842
l7 -125 -549 2 -549 2 3 78 c7 187 50 630 80 838 l7 50 95 6 c152 10 800 3
812 -9z m-1086 -69 c-43 -362 -76 -718 -76 -831 0 -31 -4 -62 -8 -68 -4 -7
-62 -14 -142 -18 -74 -4 -227 -16 -340 -26 -112 -10 -206 -17 -208 -15 -8 8
-131 610 -125 615 2 3 51 -44 108 -105 58 -60 104 -105 104 -100 0 6 -37 80
-83 165 -46 85 -83 156 -81 158 1 2 157 -74 345 -168 188 -94 344 -169 347
-167 2 3 -148 109 -334 237 -186 128 -344 238 -352 246 -17 15 -24 13 174 49
163 30 544 79 639 83 l39 2 -7 -57z m1454 42 c264 -30 539 -75 762 -127 l87
-20 29 -76 c49 -128 101 -296 136 -441 36 -144 83 -398 75 -405 -2 -3 -74 6
-159 19 -258 40 -700 84 -975 98 l-50 2 -17 230 c-17 226 -63 668 -74 712 -8
28 -1 29 186 8z m1230 -251 c179 -57 468 -171 575 -227 l80 -42 38 -100 c50
-133 100 -305 131 -451 27 -130 52 -312 43 -320 -2 -3 -28 9 -55 26 -121 74
-367 162 -617 220 -77 18 -145 33 -151 35 -6 2 -16 43 -23 92 -33 245 -128
627 -196 796 -11 26 14 22 175 -29z m-4062 -22 c-1 -5 -201 -237 -443 -515
-389 -448 -440 -504 -443 -480 -8 78 86 453 165 658 l38 100 116 53 c100 45
518 189 557 191 8 1 12 -3 10 -7z m305 -54 c34 -90 237 -666 237 -674 0 -8
-370 -68 -425 -69 -28 0 58 415 140 673 25 78 37 97 48 70z m-282 -299 c-22
-90 -49 -225 -61 -299 -31 -202 -5 -175 -225 -230 -199 -50 -393 -113 -477
-156 -28 -14 -52 -24 -54 -22 -1 2 189 200 424 440 234 241 428 436 429 434 2
-2 -15 -77 -36 -167z m2543 -489 c13 -13 16 -1094 3 -1107 -10 -10 -943 -17
-1043 -8 l-72 6 -6 332 c-4 183 -3 433 1 557 l8 225 140 6 c222 10 957 1 969
-11z m-1285 -250 c-3 -325 1 -811 7 -832 5 -16 -2 -18 -58 -18 -189 0 -1017
92 -1130 126 -13 4 -18 26 -25 122 -9 137 -7 547 4 646 10 84 -16 73 291 117
154 22 226 29 233 22 6 -6 22 -39 35 -74 17 -44 23 -53 19 -29 -3 19 -8 53
-12 76 l-5 41 128 13 c179 18 453 38 487 36 l28 -1 -2 -245z m1671 235 c242
-15 559 -50 822 -91 163 -26 166 -27 172 -53 4 -14 9 -150 12 -301 6 -287 -5
-497 -27 -510 -42 -27 -734 -109 -1054 -126 l-130 -7 2 549 c1 302 2 550 2
552 1 2 25 1 54 -2 28 -3 95 -8 147 -11z m-3045 -257 c-10 -130 -10 -444 0
-565 7 -89 6 -93 -13 -93 -36 0 -300 70 -419 111 -253 87 -393 184 -393 272 0
73 158 178 385 257 111 38 402 119 434 120 11 0 12 -19 6 -102z m4400 58 c376
-98 601 -208 635 -311 40 -122 -201 -258 -664 -375 -83 -21 -154 -35 -157 -32
-3 4 -2 48 2 97 9 111 9 437 1 563 -7 90 -6 102 7 102 3 0 83 -20 176 -44z
m610 -759 c-25 -173 -62 -326 -121 -507 -82 -246 -64 -223 -239 -301 -227
-101 -655 -252 -670 -237 -3 3 13 58 35 124 56 164 116 412 149 612 l27 167
185 46 c272 68 496 150 614 226 29 19 30 19 33 1 2 -10 -4 -69 -13 -131z
m-5724 99 c149 -79 373 -156 619 -211 63 -15 116 -27 117 -29 1 -1 16 -82 33
-180 34 -207 83 -411 140 -585 22 -68 40 -127 40 -132 0 -29 -472 137 -716
251 -104 49 -105 49 -129 105 -37 83 -99 275 -129 397 -41 166 -81 428 -66
428 4 0 45 -20 91 -44z m1099 -301 c222 -33 487 -61 765 -81 143 -10 233 -21
237 -28 4 -6 8 -34 8 -62 0 -79 28 -418 51 -614 11 -96 23 -199 26 -228 l6
-52 -44 5 c-405 46 -563 69 -837 126 l-153 32 -14 34 c-72 171 -168 512 -205
728 -11 66 -23 130 -25 143 -7 27 -16 27 185 -3z m3630 11 c0 -35 -44 -265
-75 -393 -34 -137 -127 -427 -156 -487 -17 -35 -34 -41 -294 -90 -294 -56
-731 -114 -747 -98 -3 4 4 88 17 187 13 99 30 275 40 390 9 116 19 248 23 295
l7 85 75 7 c41 3 145 11 230 18 196 14 560 55 710 79 146 24 170 25 170 7z
m-1364 -241 c-14 -261 -74 -827 -89 -842 -22 -21 -747 -25 -872 -4 l-40 6 -17
118 c-20 146 -44 387 -58 572 -5 77 -12 169 -15 205 l-6 65 552 0 552 0 -7
-120z m-2931 -620 c142 -54 338 -119 484 -160 l115 -31 86 -170 c107 -212 215
-383 328 -521 27 -34 31 -43 17 -43 -37 0 -301 107 -482 195 -154 75 -204 104
-249 147 -71 67 -231 258 -308 367 -65 92 -176 271 -176 283 0 5 17 1 38 -8
20 -9 87 -35 147 -59z m4894 -52 c-83 -137 -221 -320 -348 -460 l-101 -112
-193 -95 c-191 -94 -476 -210 -502 -204 -10 2 13 41 69 115 102 136 197 294
281 463 34 70 64 133 66 139 2 6 81 33 174 60 193 56 361 114 509 175 55 23
103 38 105 33 1 -4 -26 -56 -60 -114z m-3869 -232 c224 -40 353 -58 569 -80
100 -11 185 -21 187 -24 3 -3 23 -92 44 -199 35 -172 100 -424 130 -502 l11
-29 -73 7 c-93 9 -295 41 -423 67 l-100 21 -68 66 c-145 141 -314 374 -431
593 -31 58 -56 109 -56 113 0 5 10 6 23 3 12 -4 96 -19 187 -36z m2880 -78
c-109 -208 -253 -411 -409 -575 l-81 -86 -157 -30 c-165 -32 -429 -69 -437
-61 -3 2 9 49 25 104 44 145 93 351 120 497 l23 128 31 4 c16 3 84 10 150 16
161 15 503 65 645 94 63 13 123 24 133 25 15 1 8 -20 -43 -116z m-1090 -48 c0
-5 -16 -87 -36 -183 -36 -181 -112 -460 -138 -510 l-15 -29 -138 -6 c-76 -3
-185 -3 -242 1 l-104 7 -24 70 c-51 148 -153 576 -153 639 l0 21 425 0 c263 0
425 -4 425 -10z m-1650 -731 c114 -33 131 -41 193 -91 37 -31 66 -58 63 -60
-10 -11 -383 154 -431 191 -19 14 -18 15 15 5 19 -5 91 -26 160 -45z m2640 51
c0 -16 -431 -210 -452 -203 -6 3 50 51 121 105 9 7 84 32 166 56 167 49 165
49 165 42z m-1933 -185 c65 -7 129 -15 141 -19 16 -4 37 -29 60 -70 l35 -63
-34 7 c-98 20 -389 141 -389 161 0 4 15 4 34 1 19 -3 88 -11 153 -17z m1207 9
c-16 -27 -272 -132 -373 -154 -38 -8 -38 -10 4 68 27 52 33 57 70 62 297 38
308 39 299 24z m-534 -47 c0 -15 -64 -100 -90 -120 -38 -29 -60 -34 -96 -22
-34 12 -84 62 -117 119 l-18 31 160 0 c89 0 161 -4 161 -8z"/>
</g>
</svg>
